<svg width="20" height="20" viewBox="0 0 20 20" fill="none" xmlns="http://www.w3.org/2000/svg">
<g id="Kebab Menu Verticle">
<path id="Vector" d="M9.99992 6.66683C10.9166 6.66683 11.6666 5.91683 11.6666 5.00016C11.6666 4.0835 10.9166 3.3335 9.99992 3.3335C9.08325 3.3335 8.33325 4.0835 8.33325 5.00016C8.33325 5.91683 9.08325 6.66683 9.99992 6.66683ZM9.99992 8.3335C9.08325 8.3335 8.33325 9.0835 8.33325 10.0002C8.33325 10.9168 9.08325 11.6668 9.99992 11.6668C10.9166 11.6668 11.6666 10.9168 11.6666 10.0002C11.6666 9.0835 10.9166 8.3335 9.99992 8.3335ZM9.99992 13.3335C9.08325 13.3335 8.33325 14.0835 8.33325 15.0002C8.33325 15.9168 9.08325 16.6668 9.99992 16.6668C10.9166 16.6668 11.6666 15.9168 11.6666 15.0002C11.6666 14.0835 10.9166 13.3335 9.99992 13.3335Z" fill="#141519"/>
</g>
</svg>
